<svg id="Calque_1" data-name="Calque 1" xmlns="http://www.w3.org/2000/svg" viewBox="0 0 228.5 228.5"><defs><style>.cls-1{fill:#999;stroke:#fff1d4;stroke-miterlimit:10;stroke-width:3px;opacity:0.5;}.cls-2{fill:#fff1d4;}</style></defs><circle class="cls-1" cx="114.25" cy="114.25" r="112.75"/><g id="Restaurant"><path class="cls-2" d="M175.57,168.32h-.21l1.87,22.46H160.78c-.32-6.51-.74-14.17-1.1-20.67.57-.1,1-.34,1-.61a.47.47,0,0,0-.28-.39c3-.63,5.19-3.39,5.19-8.1,0-5.41-2.93-11.35-6.54-11.35s-6.54,5.94-6.54,11.35c0,4.71,2.24,7.47,5.2,8.1a.48.48,0,0,0-.29.39c0,.28.42.52,1,.62-.36,6.45-.82,14-1.14,20.66H141.1c-.32-6.5-.74-14.17-1.1-20.66.57-.11,1-.35,1-.62s-.27-.44-.69-.56c1.73-1,3.74-4.6,3.74-9.76a25.18,25.18,0,0,0-1.07-7.4h-.8c-.18,4.31-.33,8.21-.44,11.27h-.29c-.11-3-.26-6.95-.44-11.27h-1c-.18,4.31-.35,8.21-.45,11.27h-.29c-.11-3-.27-6.95-.44-11.27H137.7c-.18,4.31-.34,8.21-.45,11.27H137c-.11-3-.26-6.95-.44-11.27h-.79a25.86,25.86,0,0,0-1.07,7.4c0,5.19,1.87,8.78,3.69,9.77-.38.13-.63.33-.63.55s.4.52,1,.62c-.36,6.45-.81,14-1.13,20.66H122.47l1.87-22.46h-.21a17.62,17.62,0,0,1,0-35.23,17.36,17.36,0,0,1,5.52.9,23.41,23.41,0,0,1,41.31-.26,17.6,17.6,0,1,1,4.61,34.59Z" transform="translate(-35.5 -96)"/><path class="cls-2" d="M178.79,194.93H120.91a2.06,2.06,0,1,0,0,4.12h57.88a2.06,2.06,0,1,0,0-4.12Z" transform="translate(-35.5 -96)"/><path class="cls-2" d="M46.72,213.33l-2.6-.61V211l5.8-.15h3.36c4.3,0,6.86,2.07,6.86,5.49a5.81,5.81,0,0,1-4,6A9.8,9.8,0,0,1,58,225.08l2.41,4.85,2.16.49v1.83H58l-2.6-5.65c-1.43-3-2.1-3.66-4.11-3.66H49.92v6.86l2.59.62v1.83H44.12v-1.83l2.6-.62Zm5.49,7.32c3,0,4.73-1.4,4.73-3.81a3.53,3.53,0,0,0-3.81-3.51H49.92v7.32Z" transform="translate(-35.5 -96)"/><path class="cls-2" d="M78.6,219.89v2.44h-7v7.47h7l.61-3.05h2v5.5H65.78v-1.83l2.6-.62V213.33l-2.6-.61V211l5.8-.15h9.31v5.19h-2l-.76-2.75H71.58v6.56Z" transform="translate(-35.5 -96)"/><path class="cls-2" d="M89.73,229.2a7.5,7.5,0,0,0,3.35.76c2.23,0,4.67-1.1,4.67-3.27,0-4.7-11-2.74-11-10,0-4.27,3.42-6.07,7.23-6.07a23.84,23.84,0,0,1,6.44,1.22l-.16,5.19h-2l-1-3.26a10.94,10.94,0,0,0-3.23-.55c-2.75,0-4.06,1.43-4.06,3,0,4.63,11,2.86,11,9.73,0,4.58-3.69,6.68-8,6.68a19.47,19.47,0,0,1-6.28-1.22V226h2.44Z" transform="translate(-35.5 -96)"/><path class="cls-2" d="M108.24,230.42l3.05-.62V213.33h-4l-.76,3h-2v-5.49h16.63v5.49h-2l-.77-3h-4V229.8l3,.62v1.83h-9.31Z" transform="translate(-35.5 -96)"/><path class="cls-2" d="M131.43,211l3-.15,6.77,19,2.53.58v1.83h-8.84v-1.83l2.83-.58-1.16-3.39h-7.93l-1.19,3.39,2.87.58v1.83H122v-1.83l2.5-.58Zm1.28,3.78L129.5,224h6.29Z" transform="translate(-35.5 -96)"/><path class="cls-2" d="M164.22,223.55c0,5.65-2,9-8.39,9-6,0-8.09-2.9-8.09-8.54V213.33l-2.59-.61V211l8.7-.15v1.83l-2.9.61V224c0,4.58,1.52,6,5,6,3.82,0,5-1.68,5-6.41V213.33l-2.9-.61V211l8.69-.15v1.83l-2.59.61Z" transform="translate(-35.5 -96)"/><path class="cls-2" d="M173.37,213.33l-2.6-.61V211l5.8-.15h3.36c4.3,0,6.86,2.07,6.86,5.49a5.8,5.8,0,0,1-4,6,9.76,9.76,0,0,1,1.84,2.75l2.41,4.85,2.16.49v1.83h-4.57l-2.6-5.65c-1.43-3-2.1-3.66-4.12-3.66h-1.37v6.86l2.59.62v1.83h-8.39v-1.83l2.6-.62Zm5.49,7.32c3,0,4.73-1.4,4.73-3.81a3.54,3.54,0,0,0-3.82-3.51h-3.2v7.32Z" transform="translate(-35.5 -96)"/><path class="cls-2" d="M200.52,211l3-.15,6.77,19,2.53.58v1.83H204v-1.83l2.83-.58-1.16-3.39h-7.93l-1.19,3.39,2.87.58v1.83h-8.39v-1.83l2.5-.58Zm1.28,3.78L198.59,224h6.29Z" transform="translate(-35.5 -96)"/><path class="cls-2" d="M223.09,230.42v1.83h-8.24v-1.83l2.59-.62V213.33l-2.59-.61V211l6.41-.15,10.07,17.05V213.33l-2.6-.61V211l7.94-.15v1.83l-2.6.61v18.92h-3.81l-10.07-16.82V229.8Z" transform="translate(-35.5 -96)"/><path class="cls-2" d="M242.61,230.42l3-.62V213.33h-4l-.77,3h-2v-5.49h16.63v5.49h-2l-.76-3h-4V229.8l3,.62v1.83h-9.3Z" transform="translate(-35.5 -96)"/><path class="cls-2" d="M106,188.11c-.06,0-.14-.14-.23-.39a5.68,5.68,0,0,0-.36-1.05,5.28,5.28,0,0,0-2.7-2.9,4.66,4.66,0,0,0-2.72-.45l-.79.11a5.49,5.49,0,0,0-.78.26,6.75,6.75,0,0,0-1.53.79,6.49,6.49,0,0,0-2.15,3c-.07.32-.2.63-.24,1s-.05.68-.08,1a8,8,0,0,0,.36,2.15,7.65,7.65,0,0,0,2.62,3.75,7.55,7.55,0,0,0,4.62,1.54A9.64,9.64,0,0,0,110.8,191a10.34,10.34,0,0,0,.67-2.88l0-.75c0-.26,0-.52,0-.78a13.87,13.87,0,0,0-.2-1.56,12.25,12.25,0,0,0-8.37-9.26,13.08,13.08,0,0,0-3.35-.52c-.58,0-1.19,0-1.79.06s-1.2.12-1.79.25a21.62,21.62,0,0,0-6.75,2.57,40.47,40.47,0,0,0-5.89,4.29c-3.68,3.18-6.93,6.75-10.38,9.93a43.63,43.63,0,0,1-5.43,4.39,18.79,18.79,0,0,1-6.27,2.79c-.55.13-1.12.19-1.67.27a16,16,0,0,1-1.7,0,8.13,8.13,0,0,1-3.36-.92,8,8,0,0,1-4-4.93c-.07-.25-.15-.49-.2-.74l-.06-.76-.06-.75c0-.25,0-.51.08-.76a6.43,6.43,0,0,1,5.34-5.55l1.2-.08a9,9,0,0,1,1.19.19,5.12,5.12,0,0,1,2,1,5,5,0,0,1,1.75,3.29,3.88,3.88,0,0,1-.71,2.87A3.65,3.65,0,0,1,59.3,194a2.86,2.86,0,0,1-1.25.18c-.28,0-.41-.09-.41-.15s.56-.19,1.35-.68a3.36,3.36,0,0,0,1.1-1.21,2.9,2.9,0,0,0,.23-2.09,3.56,3.56,0,0,0-1.43-2.15A3.47,3.47,0,0,0,56,187.4a4.27,4.27,0,0,0-2.77,2,4.61,4.61,0,0,0-.26,3.8,5.39,5.39,0,0,0,2.81,3.18A5.51,5.51,0,0,0,58,197c.39,0,.86-.06,1.29-.07s.88-.14,1.32-.26c3.53-.9,6.88-3.57,10.1-6.69s6.47-6.76,10.34-10.17A42.72,42.72,0,0,1,87.42,175a25.06,25.06,0,0,1,7.88-3c.71-.15,1.43-.2,2.14-.3s1.43-.09,2.16-.07a16.26,16.26,0,0,1,4.34.69,15.7,15.7,0,0,1,7.12,4.66c3.69,4.26,4.92,10.32,2.79,15.28a12.85,12.85,0,0,1-5,5.73,12.59,12.59,0,0,1-6.88,1.88,10.18,10.18,0,0,1-9.65-7.57,9.79,9.79,0,0,1-.33-2.87c.06-.48.11-1,.17-1.42a11.41,11.41,0,0,1,.41-1.33,8.49,8.49,0,0,1,3.17-3.88,7.33,7.33,0,0,1,7.63-.28,5.68,5.68,0,0,1,2.72,3.93,3.45,3.45,0,0,1,0,1.23C106.12,188,106.07,188.11,106,188.11Z" transform="translate(-35.5 -96)"/><path class="cls-2" d="M193.7,188.11c-.07,0-.11-.14-.15-.41a3.28,3.28,0,0,1,0-1.23,5.66,5.66,0,0,1,2.71-3.93,7.33,7.33,0,0,1,7.63.28,8.49,8.49,0,0,1,3.17,3.88,11.41,11.41,0,0,1,.41,1.33c.06.46.12.94.17,1.42a10.12,10.12,0,0,1-.32,2.87,10.2,10.2,0,0,1-9.66,7.57,12.59,12.59,0,0,1-6.88-1.88,12.9,12.9,0,0,1-5-5.73c-2.12-5-.9-11,2.79-15.28a15.76,15.76,0,0,1,7.12-4.66,16.33,16.33,0,0,1,4.35-.69c.73,0,1.43,0,2.15.07s1.44.15,2.14.3a24.66,24.66,0,0,1,7.88,3,41.51,41.51,0,0,1,6.41,4.73c3.87,3.41,7.09,7.05,10.34,10.18s6.57,5.78,10.11,6.68c.44.12.88.17,1.31.26s.9.09,1.29.07a5.56,5.56,0,0,0,2.22-.52,5.42,5.42,0,0,0,2.81-3.18,4.64,4.64,0,0,0-.27-3.8,4.27,4.27,0,0,0-2.77-2,3.47,3.47,0,0,0-2.92.52,3.6,3.6,0,0,0-1.43,2.15,2.9,2.9,0,0,0,.23,2.09,3.29,3.29,0,0,0,1.11,1.21c.78.49,1.35.52,1.34.68s-.13.11-.41.15a2.88,2.88,0,0,1-1.25-.18,3.7,3.7,0,0,1-1.69-1.29,3.88,3.88,0,0,1-.71-2.87,5,5,0,0,1,1.75-3.29,5.17,5.17,0,0,1,2-1,8.55,8.55,0,0,1,1.18-.19l1.2.08a6.39,6.39,0,0,1,5.34,5.55c0,.25.07.51.08.76l-.05.75-.07.76c-.05.25-.13.49-.2.74a8,8,0,0,1-4,4.93,8.17,8.17,0,0,1-3.37.92,15.77,15.77,0,0,1-1.69,0c-.56-.08-1.13-.14-1.68-.27a19,19,0,0,1-6.27-2.79,44.29,44.29,0,0,1-5.43-4.38c-3.45-3.19-6.7-6.76-10.38-9.94a39.94,39.94,0,0,0-5.89-4.29,21.87,21.87,0,0,0-6.75-2.57c-.59-.13-1.19-.16-1.79-.25s-1.2-.08-1.78-.06a13.08,13.08,0,0,0-3.36.52,12.25,12.25,0,0,0-8.37,9.26,11.66,11.66,0,0,0-.19,1.56c0,.26,0,.52-.05.78l0,.75a10.7,10.7,0,0,0,.67,2.88,9.64,9.64,0,0,0,8.77,5.92,7.53,7.53,0,0,0,4.62-1.54,7.61,7.61,0,0,0,2.62-3.75,8,8,0,0,0,.36-2.15c0-.34-.05-.68-.07-1a8,8,0,0,0-.25-1,6.42,6.42,0,0,0-2.15-3,6.75,6.75,0,0,0-1.53-.79,5.49,5.49,0,0,0-.78-.26l-.78-.11a4.69,4.69,0,0,0-2.73.45,5.32,5.32,0,0,0-2.7,2.9,6.56,6.56,0,0,0-.36,1.05C193.83,188,193.76,188.11,193.7,188.11Z" transform="translate(-35.5 -96)"/><path class="cls-2" d="M156.61,267.44c.15,0,.24.36.51.91a3.41,3.41,0,0,0,1.77,1.73,2.93,2.93,0,0,0,1.66.22,4.08,4.08,0,0,0,1.87-.76,3.74,3.74,0,0,0,1.14-4.29,4.52,4.52,0,0,0-4.34-3.1,6.3,6.3,0,0,0-3.1,1,6.39,6.39,0,0,0-2.15,2.63,6.73,6.73,0,0,0-.35,1.73l-.05.44,0,.48c0,.32.09.63.13.95a7.33,7.33,0,0,0,1.76,3.46,7.46,7.46,0,0,0,3.37,2.16,8.19,8.19,0,0,0,2,.31c.35,0,.74,0,1.11,0s.75-.08,1.12-.16a17.61,17.61,0,0,0,8-4.37c2.4-2.06,4.55-4.39,6.85-6.5a27.9,27.9,0,0,1,3.66-2.92,12.76,12.76,0,0,1,4.32-1.89,11.63,11.63,0,0,1,1.16-.18,9.43,9.43,0,0,1,1.19,0,5.78,5.78,0,0,1,2.41.67,5.72,5.72,0,0,1,2.84,3.55,4.56,4.56,0,0,1,.13.53l.05.54,0,.53c0,.18,0,.37-.06.55a4.7,4.7,0,0,1-.74,2,4.54,4.54,0,0,1-3.13,2,3.82,3.82,0,0,1-3.1-.86,3.53,3.53,0,0,1-1.21-2.37,2.76,2.76,0,0,1,.55-2,2.51,2.51,0,0,1,1.21-.86c.77-.22,1.16,0,1.15.09s-.37.22-.83.56a1.87,1.87,0,0,0-.7,2,2.05,2.05,0,0,0,2.57,1.46,2.43,2.43,0,0,0,1.55-1.21,2.66,2.66,0,0,0,.09-2.17,3.09,3.09,0,0,0-1.64-1.8,3,3,0,0,0-1.26-.27,7.27,7.27,0,0,0-.78.05c-.27,0-.54.09-.81.16-2.16.57-4.29,2.27-6.38,4.32s-4.22,4.46-6.8,6.74a27.35,27.35,0,0,1-4.31,3.19,16.71,16.71,0,0,1-5.38,2.06c-.48.11-1,.14-1.47.21s-1,.06-1.48.05a11.9,11.9,0,0,1-3-.48,10.91,10.91,0,0,1-5-3.25,10.75,10.75,0,0,1-2.49-5.14,10.1,10.1,0,0,1,.56-5.54,9.47,9.47,0,0,1,3.51-4,9.17,9.17,0,0,1,4.81-1.3,7.21,7.21,0,0,1,6.77,5.38l.13.5c0,.17,0,.34.05.51,0,.34.05.67.05,1s-.09.67-.13,1a9.37,9.37,0,0,1-.3.94,5.94,5.94,0,0,1-2.27,2.71,5.1,5.1,0,0,1-5.33.1,3.83,3.83,0,0,1-1.79-2.76C156.34,267.8,156.51,267.43,156.61,267.44Z" transform="translate(-35.5 -96)"/><path class="cls-2" d="M143.09,267.44c.1,0,.27.36.19,1.11a3.83,3.83,0,0,1-1.79,2.76,5.08,5.08,0,0,1-5.33-.11,5.92,5.92,0,0,1-2.27-2.7,7.32,7.32,0,0,1-.29-.94l-.14-1c0-.33,0-.66.06-1,0-.17,0-.34,0-.51l.14-.5a7.19,7.19,0,0,1,6.76-5.38,9.3,9.3,0,0,1,4.82,1.3,9.45,9.45,0,0,1,3.5,4,10.1,10.1,0,0,1,.56,5.54,10.74,10.74,0,0,1-2.48,5.14,10.91,10.91,0,0,1-5,3.25,11.9,11.9,0,0,1-3,.48c-.5,0-1,0-1.48-.05s-1-.1-1.47-.21a16.71,16.71,0,0,1-5.38-2.06,27.82,27.82,0,0,1-4.31-3.19c-2.57-2.29-4.69-4.7-6.8-6.74s-4.22-3.75-6.38-4.32c-.27-.07-.54-.11-.8-.16a7.43,7.43,0,0,0-.78-.05,3,3,0,0,0-1.26.27,3.07,3.07,0,0,0-1.65,1.8,2.66,2.66,0,0,0,.09,2.17,2.44,2.44,0,0,0,1.56,1.21,2,2,0,0,0,2.56-1.46,1.84,1.84,0,0,0-.7-2c-.46-.34-.83-.42-.83-.56s.38-.31,1.15-.09a2.46,2.46,0,0,1,1.21.86,2.77,2.77,0,0,1,.56,2,3.58,3.58,0,0,1-1.21,2.37,3.86,3.86,0,0,1-3.11.86,4.5,4.5,0,0,1-3.12-2,4.58,4.58,0,0,1-.75-2c0-.18,0-.37-.06-.55l0-.53,0-.54c0-.18.09-.36.13-.53A5.72,5.72,0,0,1,109,259.9a5.82,5.82,0,0,1,2.41-.67,9.4,9.4,0,0,1,1.19,0c.38.05.78.09,1.17.18a12.8,12.8,0,0,1,4.31,1.89,27.1,27.1,0,0,1,3.66,2.92c2.31,2.1,4.45,4.44,6.85,6.5a17.66,17.66,0,0,0,8,4.37c.37.08.75.1,1.12.16s.76,0,1.12,0a8.11,8.11,0,0,0,2-.31,7.55,7.55,0,0,0,3.38-2.16,7.41,7.41,0,0,0,1.75-3.46,6,6,0,0,0,.13-.95l0-.48,0-.44a5.38,5.38,0,0,0-2.5-4.36,6.27,6.27,0,0,0-3.1-1,4.53,4.53,0,0,0-4.34,3.1,3.73,3.73,0,0,0,1.15,4.29,4,4,0,0,0,1.86.76,2.93,2.93,0,0,0,1.66-.22,3.41,3.41,0,0,0,1.77-1.73C142.85,267.8,142.94,267.43,143.09,267.44Z" transform="translate(-35.5 -96)"/></g><path class="cls-2" d="M114.24,248.8c-1.07,2.9-3.1,5.15-7.72,5.15-5.46,0-8.62-3.85-8.62-8.88s3.52-9,8.69-9c4.79,0,7,2.53,7.72,5.32h-1.57c-.95-2.23-2.56-3.93-6.17-3.93-4.32,0-7.08,3.15-7.08,7.54s2.8,7.54,7.1,7.54c3.65,0,5.06-1.61,6.13-3.76Z" transform="translate(-35.5 -96)"/><path class="cls-2" d="M120.22,247.7l-2.59,5.89H116l7.62-17.14h1.66l7.88,17.14h-1.64l-2.69-5.89Zm8.05-1.38c-2.36-5.16-3.45-7.53-3.84-8.61h0c-.34,1-1.65,4.14-3.6,8.61Z" transform="translate(-35.5 -96)"/><path class="cls-2" d="M136.29,236.45h7.61c4.41,0,6,2.3,6,4.86,0,3.29-2.21,5.05-5.8,5.05h-6.28v7.23h-1.5Zm1.5,8.51h5.92c2.67,0,4.59-.75,4.59-3.62,0-2.24-1.54-3.48-4.59-3.48h-5.92Z" transform="translate(-35.5 -96)"/><path class="cls-2" d="M173,245.21H162.34v7h11.71l-.24,1.37h-13V236.45h12.71v1.37H162.34v6H173Z" transform="translate(-35.5 -96)"/><path class="cls-2" d="M177.86,248.69c.69,2.28,2.31,3.92,6,3.92s5.31-1.56,5.31-3.42-1-3.19-5.87-4-6.05-2.24-6.05-4.59c0-2.8,2.63-4.51,6.19-4.51,5.41,0,6.57,2.86,6.77,4.45h-1.55c-.4-1.33-1.21-3.09-5.24-3.09-2.72,0-4.62,1-4.62,3,0,1.61.69,2.71,4.94,3.4,6,1,7,2.88,7,5.19,0,2.6-2.1,4.91-6.94,4.91-4.48,0-6.9-2.07-7.48-5.26Z" transform="translate(-35.5 -96)"/><path class="cls-2" d="M198.8,237.84H192v-1.39h15.12v1.39h-6.8v15.75H198.8Z" transform="translate(-35.5 -96)"/></svg>