<svg id="Calque_1" data-name="Calque 1" xmlns="http://www.w3.org/2000/svg" viewBox="0 0 195 39"><defs><style>.cls-1{opacity:0.5;}.cls-2{fill:#979797;}.cls-3{fill:none;stroke:#fff1d4;stroke-miterlimit:10;stroke-width:2px;}.cls-4{font-size:12px;font-family:AbrilFatface-Regular, Abril Fatface;}.cls-4,.cls-5{fill:#fff1d4;}.cls-5{font-size:7px;font-family:Aileron-LightItalic, Aileron;font-weight:300;font-style:italic;}.cls-6{letter-spacing:-0.02em;}.cls-7{letter-spacing:-0.01em;}.cls-8{letter-spacing:-0.01em;}.cls-9{letter-spacing:0em;}.cls-10{letter-spacing:-0.01em;}</style></defs><g class="cls-1"><path class="cls-2" d="M196,49.5c0,10.17-9,18.5-20,18.5H23C12,68,3,59.67,3,49.5S12,31,23,31H176C187,31,196,39.32,196,49.5Z" transform="translate(-2 -30)"/><path class="cls-3" d="M196,49.5c0,10.17-9,18.5-20,18.5H23C12,68,3,59.67,3,49.5S12,31,23,31H176C187,31,196,39.32,196,49.5Z" transform="translate(-2 -30)"/></g><text class="cls-4" transform="translate(50.76 16.98)">Dejeuner et Diner</text><text class="cls-5" transform="translate(11.2 26.16)"> <tspan class="cls-6" x="1.29" y="0">V</tspan><tspan x="5.54" y="0">en</tspan><tspan class="cls-7" x="13.27" y="0">t</tspan><tspan x="15.15" y="0">e à empor</tspan><tspan class="cls-8" x="44.83" y="0">t</tspan><tspan x="46.71" y="0">er midi et soir sur l&apos;intégralité de not</tspan><tspan class="cls-9" x="149.92" y="0">r</tspan><tspan x="152.01" y="0">e car</tspan><tspan class="cls-10" x="166.34" y="0">t</tspan><tspan x="168.22" y="0" xml:space="preserve">e  </tspan></text></svg>